<svg xmlns="http://www.w3.org/2000/svg" viewBox="0 0 512 512" width="512" height="512">
  <defs>
    <!-- Primary gradient: navy to ocean blue -->
    <linearGradient id="bgGrad" x1="0%" y1="0%" x2="100%" y2="100%">
      <stop offset="0%" stop-color="#1B2A4A"/>
      <stop offset="100%" stop-color="#2E86AB"/>
    </linearGradient>
    <!-- Coin rim highlight -->
    <linearGradient id="rimGrad" x1="0%" y1="0%" x2="100%" y2="100%">
      <stop offset="0%" stop-color="#3A9BC5"/>
      <stop offset="100%" stop-color="#152240"/>
    </linearGradient>
    <!-- Orange checkmark gradient -->
    <linearGradient id="checkGrad" x1="0%" y1="0%" x2="100%" y2="100%">
      <stop offset="0%" stop-color="#FFB347"/>
      <stop offset="100%" stop-color="#F18F01"/>
    </linearGradient>
    <!-- Soft inner shadow -->
    <filter id="innerGlow">
      <feGaussianBlur in="SourceAlpha" stdDeviation="8" result="blur"/>
      <feOffset dx="0" dy="4" result="offsetBlur"/>
      <feComposite in="SourceGraphic" in2="offsetBlur" operator="over"/>
    </filter>
    <!-- Drop shadow for checkmark -->
    <filter id="checkShadow">
      <feDropShadow dx="0" dy="4" stdDeviation="6" flood-color="#0D1520" flood-opacity="0.35"/>
    </filter>
    <!-- Sparkle glow -->
    <filter id="sparkleGlow">
      <feGaussianBlur stdDeviation="2" result="glow"/>
      <feMerge>
        <feMergeNode in="glow"/>
        <feMergeNode in="SourceGraphic"/>
      </feMerge>
    </filter>
  </defs>

  <!-- Outer coin ring -->
  <circle cx="256" cy="256" r="248" fill="url(#rimGrad)" opacity="0.6"/>

  <!-- Main coin body -->
  <circle cx="256" cy="256" r="230" fill="url(#bgGrad)"/>

  <!-- Inner coin ridge (decorative ring) -->
  <circle cx="256" cy="256" r="200" fill="none" stroke="#3A9BC5" stroke-width="2.5" opacity="0.35"/>
  <circle cx="256" cy="256" r="195" fill="none" stroke="#3A9BC5" stroke-width="1" opacity="0.2"/>

  <!-- Subtle radial sheen -->
  <circle cx="220" cy="200" r="160" fill="white" opacity="0.04"/>

  <!-- Bold checkmark - the hero element -->
  <g filter="url(#checkShadow)">
    <path d="M160 268 L228 336 L360 192"
          fill="none"
          stroke="url(#checkGrad)"
          stroke-width="52"
          stroke-linecap="round"
          stroke-linejoin="round"/>
  </g>

  <!-- Sparkle accents - top right -->
  <g filter="url(#sparkleGlow)">
    <!-- Star 1 - large -->
    <path d="M390 120 L394 132 L406 136 L394 140 L390 152 L386 140 L374 136 L386 132 Z"
          fill="white" opacity="0.9"/>
    <!-- Star 2 - small -->
    <path d="M420 160 L422 166 L428 168 L422 170 L420 176 L418 170 L412 168 L418 166 Z"
          fill="white" opacity="0.7"/>
    <!-- Star 3 - tiny -->
    <circle cx="370" cy="100" r="3" fill="white" opacity="0.5"/>
  </g>

  <!-- Bottom left sparkle cluster -->
  <g filter="url(#sparkleGlow)">
    <path d="M110 380 L113 388 L121 391 L113 394 L110 402 L107 394 L99 391 L107 388 Z"
          fill="#FFB347" opacity="0.6"/>
    <circle cx="130" cy="405" r="2.5" fill="#FFB347" opacity="0.4"/>
  </g>
</svg>