<svg xmlns="http://www.w3.org/2000/svg" viewBox="0 0 375 812" width="375" height="812">
  <!-- Screen: Join Family - Enter Codes -->
  <defs>
    <filter id="btnShadow">
      <feDropShadow dx="0" dy="2" stdDeviation="4" flood-color="#1B2A4A" flood-opacity="0.12"/>
    </filter>
  </defs>

  <rect width="375" height="812" fill="#F5F7FA"/>

  <!-- Status bar -->
  <text x="30" y="52" font-family="Inter, sans-serif" font-size="14" font-weight="600" fill="#1B2A4A">9:41</text>
  <g transform="translate(295, 40)">
    <rect x="0" y="0" width="22" height="11" rx="2" fill="none" stroke="#1B2A4A" stroke-width="1.2"/>
    <rect x="2" y="2" width="15" height="7" rx="1" fill="#1B2A4A"/>
    <rect x="22" y="3" width="2" height="5" rx="1" fill="#1B2A4A" opacity="0.4"/>
  </g>

  <!-- Header -->
  <rect x="0" y="0" width="375" height="200" fill="#1B2A4A"/>
  <!-- Back arrow -->
  <g transform="translate(28, 88)">
    <path d="M10 0 L0 0 M3 -5 L0 0 L3 5" fill="none" stroke="white" stroke-width="2" stroke-linecap="round" stroke-linejoin="round"/>
  </g>
  <text x="28" y="145" font-family="Inter, sans-serif" font-size="28" font-weight="700" fill="white">Join Your Family</text>
  <text x="28" y="175" font-family="Inter, sans-serif" font-size="15" fill="white" opacity="0.6">Enter the codes your parent gave you</text>

  <!-- Family Code Input -->
  <text x="28" y="240" font-family="Inter, sans-serif" font-size="13" font-weight="600" fill="#1B2A4A">Family Code</text>
  <rect x="24" y="250" width="327" height="52" rx="12" fill="white" stroke="#2E86AB" stroke-width="2"/>
  <text x="44" y="282" font-family="Inter, sans-serif" font-size="16" font-weight="600" fill="#1B2A4A">JOHN13</text>
  <!-- Check icon -->
  <g transform="translate(325, 270)">
    <circle cx="0" cy="0" r="10" fill="#E0F8E8"/>
    <path d="M-4 0 L-1 3 L5 -3" fill="none" stroke="#28a745" stroke-width="1.5" stroke-linecap="round" stroke-linejoin="round"/>
  </g>

  <!-- Member Code Input -->
  <text x="28" y="335" font-family="Inter, sans-serif" font-size="13" font-weight="600" fill="#1B2A4A">Your Member Code</text>
  <rect x="24" y="345" width="327" height="52" rx="12" fill="white" stroke="#2E86AB" stroke-width="2"/>
  <text x="44" y="377" font-family="Inter, sans-serif" font-size="16" font-weight="600" fill="#1B2A4A">MAG01</text>
  <g transform="translate(325, 365)">
    <circle cx="0" cy="0" r="10" fill="#E0F8E8"/>
    <path d="M-4 0 L-1 3 L5 -3" fill="none" stroke="#28a745" stroke-width="1.5" stroke-linecap="round" stroke-linejoin="round"/>
  </g>

  <!-- Helper text -->
  <rect x="24" y="420" width="327" height="60" rx="12" fill="#E8F4F8"/>
  <text x="44" y="445" font-family="Inter, sans-serif" font-size="12" fill="#2E86AB">💡 Ask your parent for these codes. They can</text>
  <text x="44" y="463" font-family="Inter, sans-serif" font-size="12" fill="#2E86AB">find them in Settings → Family Members.</text>

  <!-- Continue Button -->
  <g filter="url(#btnShadow)">
    <rect x="24" y="520" width="327" height="56" rx="14" fill="#2E86AB"/>
    <text x="187.5" y="554" text-anchor="middle" font-family="Inter, sans-serif" font-size="17" font-weight="600" fill="white">Continue</text>
  </g>

  <!-- Home indicator -->
  <rect x="120" y="790" width="135" height="5" rx="2.5" fill="#1B2A4A" opacity="0.15"/>
</svg>