<svg xmlns="http://www.w3.org/2000/svg" viewBox="0 0 375 812" width="375" height="812">
  <!-- Screen: Kid Set PIN -->
  <rect width="375" height="812" fill="#F5F7FA"/>

  <!-- Status bar -->
  <text x="30" y="52" font-family="Inter, sans-serif" font-size="14" font-weight="600" fill="#1B2A4A">9:41</text>
  <g transform="translate(295, 40)">
    <rect x="0" y="0" width="22" height="11" rx="2" fill="none" stroke="#1B2A4A" stroke-width="1.2"/>
    <rect x="2" y="2" width="15" height="7" rx="1" fill="#1B2A4A"/>
    <rect x="22" y="3" width="2" height="5" rx="1" fill="#1B2A4A" opacity="0.4"/>
  </g>

  <!-- Header -->
  <rect x="0" y="0" width="375" height="200" fill="#1B2A4A"/>
  <!-- Back arrow -->
  <g transform="translate(28, 88)">
    <path d="M10 0 L0 0 M3 -5 L0 0 L3 5" fill="none" stroke="white" stroke-width="2" stroke-linecap="round" stroke-linejoin="round"/>
  </g>
  <text x="28" y="145" font-family="Inter, sans-serif" font-size="28" font-weight="700" fill="white">Set Your PIN</text>
  <text x="28" y="175" font-family="Inter, sans-serif" font-size="15" fill="white" opacity="0.6">Create a 4-digit PIN to keep your account safe</text>

  <!-- Shield icon -->
  <g transform="translate(187.5, 270)">
    <circle cx="0" cy="0" r="36" fill="#E8F4F8"/>
    <path d="M0 -16 L14 -10 L14 2 C14 12 0 20 0 20 C0 20 -14 12 -14 2 L-14 -10 Z" fill="#2E86AB" opacity="0.2"/>
    <path d="M0 -12 L10 -7 L10 1 C10 9 0 15 0 15 C0 15 -10 9 -10 1 L-10 -7 Z" fill="none" stroke="#2E86AB" stroke-width="1.5"/>
    <path d="M-4 1 L-1 4 L5 -2" fill="none" stroke="#2E86AB" stroke-width="2" stroke-linecap="round" stroke-linejoin="round"/>
  </g>

  <!-- PIN dots (2 filled) -->
  <g transform="translate(187.5, 345)">
    <circle cx="-45" cy="0" r="10" fill="#2E86AB"/>
    <circle cx="-15" cy="0" r="10" fill="#2E86AB"/>
    <circle cx="15" cy="0" r="10" fill="none" stroke="#DDE4E8" stroke-width="2"/>
    <circle cx="45" cy="0" r="10" fill="none" stroke="#DDE4E8" stroke-width="2"/>
  </g>

  <!-- PIN Pad -->
  <g transform="translate(187.5, 460)">
    <!-- Row 1: 1 2 3 -->
    <g transform="translate(-90, 0)">
      <circle cx="0" cy="0" r="30" fill="white" stroke="#E8ECF0" stroke-width="1"/>
      <text x="0" y="8" text-anchor="middle" font-family="Inter, sans-serif" font-size="24" font-weight="500" fill="#1B2A4A">1</text>
    </g>
    <g transform="translate(0, 0)">
      <circle cx="0" cy="0" r="30" fill="white" stroke="#E8ECF0" stroke-width="1"/>
      <text x="0" y="8" text-anchor="middle" font-family="Inter, sans-serif" font-size="24" font-weight="500" fill="#1B2A4A">2</text>
    </g>
    <g transform="translate(90, 0)">
      <circle cx="0" cy="0" r="30" fill="white" stroke="#E8ECF0" stroke-width="1"/>
      <text x="0" y="8" text-anchor="middle" font-family="Inter, sans-serif" font-size="24" font-weight="500" fill="#1B2A4A">3</text>
    </g>
    <!-- Row 2: 4 5 6 -->
    <g transform="translate(-90, 76)">
      <circle cx="0" cy="0" r="30" fill="white" stroke="#E8ECF0" stroke-width="1"/>
      <text x="0" y="8" text-anchor="middle" font-family="Inter, sans-serif" font-size="24" font-weight="500" fill="#1B2A4A">4</text>
    </g>
    <g transform="translate(0, 76)">
      <circle cx="0" cy="0" r="30" fill="white" stroke="#E8ECF0" stroke-width="1"/>
      <text x="0" y="8" text-anchor="middle" font-family="Inter, sans-serif" font-size="24" font-weight="500" fill="#1B2A4A">5</text>
    </g>
    <g transform="translate(90, 76)">
      <circle cx="0" cy="0" r="30" fill="white" stroke="#E8ECF0" stroke-width="1"/>
      <text x="0" y="8" text-anchor="middle" font-family="Inter, sans-serif" font-size="24" font-weight="500" fill="#1B2A4A">6</text>
    </g>
    <!-- Row 3: 7 8 9 -->
    <g transform="translate(-90, 152)">
      <circle cx="0" cy="0" r="30" fill="white" stroke="#E8ECF0" stroke-width="1"/>
      <text x="0" y="8" text-anchor="middle" font-family="Inter, sans-serif" font-size="24" font-weight="500" fill="#1B2A4A">7</text>
    </g>
    <g transform="translate(0, 152)">
      <circle cx="0" cy="0" r="30" fill="white" stroke="#E8ECF0" stroke-width="1"/>
      <text x="0" y="8" text-anchor="middle" font-family="Inter, sans-serif" font-size="24" font-weight="500" fill="#1B2A4A">8</text>
    </g>
    <g transform="translate(90, 152)">
      <circle cx="0" cy="0" r="30" fill="white" stroke="#E8ECF0" stroke-width="1"/>
      <text x="0" y="8" text-anchor="middle" font-family="Inter, sans-serif" font-size="24" font-weight="500" fill="#1B2A4A">9</text>
    </g>
    <!-- Row 4: _ 0 â† -->
    <g transform="translate(0, 228)">
      <circle cx="0" cy="0" r="30" fill="white" stroke="#E8ECF0" stroke-width="1"/>
      <text x="0" y="8" text-anchor="middle" font-family="Inter, sans-serif" font-size="24" font-weight="500" fill="#1B2A4A">0</text>
    </g>
    <g transform="translate(90, 228)">
      <circle cx="0" cy="0" r="30" fill="white" stroke="#E8ECF0" stroke-width="1"/>
      <path d="M8 -5 L-2 0 L8 5 M-2 0 L10 0" fill="none" stroke="#888" stroke-width="2" stroke-linecap="round" stroke-linejoin="round"/>
    </g>
  </g>

  <!-- Home indicator -->
  <rect x="120" y="790" width="135" height="5" rx="2.5" fill="#1B2A4A" opacity="0.15"/>
</svg>