<svg xmlns="http://www.w3.org/2000/svg" viewBox="0 0 375 812" width="375" height="812">
  <!-- Screen: Parent Dashboard (Populated - After Setup) -->
  <defs>
    <filter id="cardShadow">
      <feDropShadow dx="0" dy="2" stdDeviation="6" flood-color="#1B2A4A" flood-opacity="0.1"/>
    </filter>
  </defs>

  <rect width="375" height="812" fill="#F5F7FA"/>

  <!-- Status bar -->
  <text x="30" y="52" font-family="Inter, sans-serif" font-size="14" font-weight="600" fill="#1B2A4A">9:41</text>
  <g transform="translate(295, 40)">
    <rect x="0" y="0" width="22" height="11" rx="2" fill="none" stroke="#1B2A4A" stroke-width="1.2"/>
    <rect x="2" y="2" width="15" height="7" rx="1" fill="#1B2A4A"/>
    <rect x="22" y="3" width="2" height="5" rx="1" fill="#1B2A4A" opacity="0.4"/>
  </g>

  <!-- Header -->
  <rect x="0" y="0" width="375" height="170" fill="#1B2A4A"/>
  <!-- Role switcher -->
  <rect x="20" y="78" width="130" height="28" rx="14" fill="white" opacity="0.12"/>
  <text x="40" y="97" font-family="Inter, sans-serif" font-size="11" fill="white" opacity="0.8">↻ Switch to Kid</text>
  <!-- Settings + Bell -->
  <g transform="translate(340, 92)">
    <circle cx="0" cy="0" r="10" fill="none" stroke="white" stroke-width="1.5" opacity="0.6"/>
    <circle cx="0" cy="0" r="3" fill="none" stroke="white" stroke-width="1.5" opacity="0.6"/>
  </g>
  <g transform="translate(300, 92)">
    <path d="M0 -7 C-5 -7 -7 -3 -7 2 L-7 4 L7 4 L7 2 C7 -3 5 -7 0 -7Z" fill="none" stroke="white" stroke-width="1.5" opacity="0.6"/>
    <circle cx="0" cy="7" r="2" fill="white" opacity="0.6"/>
    <!-- Notification badge -->
    <circle cx="6" cy="-7" r="7" fill="#FF6B6B"/>
    <text x="6" y="-4" text-anchor="middle" font-family="Inter, sans-serif" font-size="8" font-weight="700" fill="white">5</text>
  </g>

  <text x="28" y="130" font-family="Inter, sans-serif" font-size="20" font-weight="700" fill="white">Family Dashboard</text>
  <text x="28" y="152" font-family="Inter, sans-serif" font-size="13" fill="white" opacity="0.5">The Johnson Family</text>

  <!-- Quick Stats -->
  <g transform="translate(0, 180)">
    <rect x="24" y="0" width="100" height="55" rx="12" fill="white" stroke="#E8ECF0" stroke-width="1"/>
    <text x="74" y="25" text-anchor="middle" font-family="Inter, sans-serif" font-size="22" font-weight="800" fill="#2E86AB">8</text>
    <text x="74" y="42" text-anchor="middle" font-family="Inter, sans-serif" font-size="9" fill="#888">Active Chores</text>

    <rect x="137" y="0" width="100" height="55" rx="12" fill="white" stroke="#E8ECF0" stroke-width="1"/>
    <text x="187" y="25" text-anchor="middle" font-family="Inter, sans-serif" font-size="22" font-weight="800" fill="#F18F01">3</text>
    <text x="187" y="42" text-anchor="middle" font-family="Inter, sans-serif" font-size="9" fill="#888">Pending</text>

    <rect x="250" y="0" width="100" height="55" rx="12" fill="white" stroke="#E8ECF0" stroke-width="1"/>
    <text x="300" y="25" text-anchor="middle" font-family="Inter, sans-serif" font-size="22" font-weight="800" fill="#28a745">12</text>
    <text x="300" y="42" text-anchor="middle" font-family="Inter, sans-serif" font-size="9" fill="#888">This Week</text>
  </g>

  <!-- Pending Verifications -->
  <text x="28" y="265" font-family="Inter, sans-serif" font-size="11" font-weight="500" fill="#888" letter-spacing="1">PENDING VERIFICATIONS</text>
  <text x="327" y="265" text-anchor="end" font-family="Inter, sans-serif" font-size="11" font-weight="500" fill="#2E86AB">View All</text>

  <!-- Verification card 1 -->
  <g filter="url(#cardShadow)">
    <rect x="24" y="275" width="327" height="60" rx="12" fill="white" stroke="#F18F01" stroke-width="1.5"/>
    <circle cx="55" cy="305" r="14" fill="#FFF5E0"/>
    <text x="55" y="311" text-anchor="middle" font-family="Inter, sans-serif" font-size="13">📸</text>
    <text x="78" y="298" font-family="Inter, sans-serif" font-size="12" font-weight="600" fill="#1B2A4A">Maggie: "Clean the garage"</text>
    <text x="78" y="315" font-family="Inter, sans-serif" font-size="10" fill="#F18F01">Waiting for review</text>
    <text x="330" y="298" text-anchor="end" font-family="Inter, sans-serif" font-size="10" font-weight="600" fill="#2E86AB">50 pts</text>
  </g>

  <!-- Verification card 2 -->
  <g filter="url(#cardShadow)">
    <rect x="24" y="345" width="327" height="60" rx="12" fill="white" stroke="#F18F01" stroke-width="1.5"/>
    <circle cx="55" cy="375" r="14" fill="#FFF5E0"/>
    <text x="55" y="381" text-anchor="middle" font-family="Inter, sans-serif" font-size="13">📸</text>
    <text x="78" y="368" font-family="Inter, sans-serif" font-size="12" font-weight="600" fill="#1B2A4A">Jake: "Walk the dog"</text>
    <text x="78" y="385" font-family="Inter, sans-serif" font-size="10" fill="#F18F01">Waiting for review</text>
    <text x="330" y="368" text-anchor="end" font-family="Inter, sans-serif" font-size="10" font-weight="600" fill="#2E86AB">20 pts</text>
  </g>

  <!-- Swap Requests -->
  <text x="28" y="435" font-family="Inter, sans-serif" font-size="11" font-weight="500" fill="#888" letter-spacing="1">SWAP REQUESTS</text>

  <g filter="url(#cardShadow)">
    <rect x="24" y="445" width="327" height="60" rx="12" fill="white" stroke="#2E86AB" stroke-width="1.5"/>
    <circle cx="55" cy="475" r="14" fill="#E8F4F8"/>
    <text x="55" y="481" text-anchor="middle" font-family="Inter, sans-serif" font-size="13">🔄</text>
    <text x="78" y="468" font-family="Inter, sans-serif" font-size="12" font-weight="600" fill="#1B2A4A">Maggie — Chore Change</text>
    <text x="78" y="485" font-family="Inter, sans-serif" font-size="10" fill="#2E86AB">Tap to review</text>
  </g>

  <!-- Kids Overview -->
  <text x="28" y="540" font-family="Inter, sans-serif" font-size="11" font-weight="500" fill="#888" letter-spacing="1">YOUR KIDS</text>

  <!-- Kid rows -->
  <rect x="24" y="550" width="327" height="50" rx="10" fill="white" stroke="#E8ECF0" stroke-width="1"/>
  <circle cx="50" cy="575" r="12" fill="#A855F7"/>
  <text x="50" y="579" text-anchor="middle" font-family="Inter, sans-serif" font-size="10" font-weight="700" fill="white">M</text>
  <text x="70" y="570" font-family="Inter, sans-serif" font-size="12" font-weight="600" fill="#1B2A4A">Maggie</text>
  <text x="70" y="585" font-family="Inter, sans-serif" font-size="9" fill="#888">3/5 chores</text>
  <rect x="130" y="582" width="80" height="4" rx="2" fill="#E8ECF0"/>
  <rect x="130" y="582" width="48" height="4" rx="2" fill="#28a745"/>
  <text x="330" y="578" text-anchor="end" font-family="Inter, sans-serif" font-size="11" font-weight="600" fill="#F18F01">285 pts</text>

  <rect x="24" y="605" width="327" height="50" rx="10" fill="white" stroke="#E8ECF0" stroke-width="1"/>
  <circle cx="50" cy="630" r="12" fill="#FF6B6B"/>
  <text x="50" y="634" text-anchor="middle" font-family="Inter, sans-serif" font-size="10" font-weight="700" fill="white">J</text>
  <text x="70" y="625" font-family="Inter, sans-serif" font-size="12" font-weight="600" fill="#1B2A4A">Jake</text>
  <text x="70" y="640" font-family="Inter, sans-serif" font-size="9" fill="#888">1/4 chores</text>
  <rect x="130" y="637" width="80" height="4" rx="2" fill="#E8ECF0"/>
  <rect x="130" y="637" width="20" height="4" rx="2" fill="#F18F01"/>
  <text x="330" y="633" text-anchor="end" font-family="Inter, sans-serif" font-size="11" font-weight="600" fill="#F18F01">120 pts</text>

  <rect x="24" y="660" width="327" height="50" rx="10" fill="white" stroke="#E8ECF0" stroke-width="1"/>
  <circle cx="50" cy="685" r="12" fill="#2E86AB"/>
  <text x="50" y="689" text-anchor="middle" font-family="Inter, sans-serif" font-size="10" font-weight="700" fill="white">L</text>
  <text x="70" y="680" font-family="Inter, sans-serif" font-size="12" font-weight="600" fill="#1B2A4A">Lily</text>
  <text x="70" y="695" font-family="Inter, sans-serif" font-size="9" fill="#888">2/3 chores</text>
  <rect x="130" y="692" width="80" height="4" rx="2" fill="#E8ECF0"/>
  <rect x="130" y="692" width="53" height="4" rx="2" fill="#28a745"/>
  <text x="330" y="688" text-anchor="end" font-family="Inter, sans-serif" font-size="11" font-weight="600" fill="#F18F01">95 pts</text>

  <!-- Bottom Navigation -->
  <rect x="0" y="740" width="375" height="72" fill="white" stroke="#E8ECF0" stroke-width="1"/>
  <!-- Dashboard (active) -->
  <g text-anchor="middle">
    <rect x="18" y="740" width="40" height="3" rx="1.5" fill="#2E86AB"/>
    <g transform="translate(38, 762)">
      <rect x="-7" y="-7" width="6" height="6" rx="1.5" fill="#2E86AB"/>
      <rect x="1" y="-7" width="6" height="6" rx="1.5" fill="#2E86AB"/>
      <rect x="-7" y="1" width="6" height="6" rx="1.5" fill="#2E86AB"/>
      <rect x="1" y="1" width="6" height="6" rx="1.5" fill="#2E86AB"/>
    </g>
    <text x="38" y="783" font-family="Inter, sans-serif" font-size="10" font-weight="600" fill="#2E86AB">Dashboard</text>
  </g>
  <!-- Verify -->
  <g text-anchor="middle">
    <g transform="translate(112, 762)">
      <path d="M-6,-1 L-2,5 L7,-6" fill="none" stroke="#B0B8C0" stroke-width="2.5" stroke-linecap="round" stroke-linejoin="round"/>
    </g>
    <text x="112" y="783" font-family="Inter, sans-serif" font-size="10" fill="#B0B8C0">Verify</text>
  </g>
  <!-- Rewards -->
  <g text-anchor="middle">
    <g transform="translate(187, 762)">
      <path d="M0,-8 L2,-3 L7.6,-2.5 L3.3,1 L4.7,6.5 L0,3.5 L-4.7,6.5 L-3.3,1 L-7.6,-2.5 L-2,-3 Z" fill="#B0B8C0"/>
    </g>
    <text x="187" y="783" font-family="Inter, sans-serif" font-size="10" fill="#B0B8C0">Rewards</text>
  </g>
  <!-- Room -->
  <g text-anchor="middle">
    <g transform="translate(262, 762)">
      <path d="M-6,-7 L6,-7 C8,-7 9,-5.5 9,-4 L9,1.5 C9,3.5 8,5 6,5 L1,5 L-3,9 L-1,5 L-6,5 C-8,5 -9,3.5 -9,1.5 L-9,-4 C-9,-5.5 -8,-7 -6,-7 Z" fill="#B0B8C0"/>
    </g>
    <text x="262" y="783" font-family="Inter, sans-serif" font-size="10" fill="#B0B8C0">Room</text>
  </g>
  <!-- Family -->
  <g text-anchor="middle">
    <g transform="translate(337, 762)">
      <circle cx="-3" cy="-5" r="3.5" fill="#B0B8C0"/>
      <path d="M-9,7 C-9,1 3,1 3,7" fill="#B0B8C0"/>
      <circle cx="5" cy="-6" r="2.5" fill="#B0B8C0" opacity="0.7"/>
      <path d="M1,6 C1,1 9,1 9,6" fill="#B0B8C0" opacity="0.7"/>
    </g>
    <text x="337" y="783" font-family="Inter, sans-serif" font-size="10" fill="#B0B8C0">Family</text>
  </g>

  <!-- Home indicator -->
  <rect x="120" y="800" width="135" height="5" rx="2.5" fill="#1B2A4A" opacity="0.15"/>
</svg>