<svg xmlns="http://www.w3.org/2000/svg" viewBox="0 0 375 812" width="375" height="812">
  <!-- Screen: Parent Family — Family management -->
  <defs>
    <filter id="cardShadow">
      <feDropShadow dx="0" dy="2" stdDeviation="6" flood-color="#1B2A4A" flood-opacity="0.1"/>
    </filter>
  </defs>

  <rect width="375" height="812" fill="#F5F7FA"/>

  <!-- Status bar -->
  <text x="30" y="52" font-family="Inter, sans-serif" font-size="14" font-weight="600" fill="#1B2A4A">9:41</text>
  <g transform="translate(295, 40)">
    <rect x="0" y="0" width="22" height="11" rx="2" fill="none" stroke="#1B2A4A" stroke-width="1.2"/>
    <rect x="2" y="2" width="15" height="7" rx="1" fill="#1B2A4A"/>
    <rect x="22" y="3" width="2" height="5" rx="1" fill="#1B2A4A" opacity="0.4"/>
  </g>

  <!-- Header -->
  <rect x="0" y="0" width="375" height="170" fill="#1B2A4A"/>
  <text x="28" y="100" font-family="Inter, sans-serif" font-size="24" font-weight="700" fill="white">Family</text>
  <text x="28" y="125" font-family="Inter, sans-serif" font-size="14" fill="white" opacity="0.5">The Johnson Family</text>
  <!-- Family Code -->
  <rect x="28" y="138" width="160" height="24" rx="12" fill="white" opacity="0.12"/>
  <text x="42" y="155" font-family="Inter, sans-serif" font-size="11" fill="white" opacity="0.8">Family Code: JOHN13</text>
  <!-- Settings gear -->
  <g transform="translate(340, 95)">
    <circle cx="0" cy="0" r="12" fill="none" stroke="white" stroke-width="1.5" opacity="0.6"/>
    <circle cx="0" cy="0" r="3" fill="none" stroke="white" stroke-width="1.5" opacity="0.6"/>
  </g>

  <!-- Adults Section -->
  <text x="28" y="200" font-family="Inter, sans-serif" font-size="11" font-weight="500" fill="#888" letter-spacing="1">ADULTS</text>

  <g filter="url(#cardShadow)">
    <rect x="24" y="210" width="327" height="60" rx="12" fill="white"/>
    <circle cx="55" cy="240" r="16" fill="#2E86AB"/>
    <text x="55" y="245" text-anchor="middle" font-family="Inter, sans-serif" font-size="11" font-weight="700" fill="white">M</text>
    <text x="80" y="234" font-family="Inter, sans-serif" font-size="14" font-weight="600" fill="#1B2A4A">Mike</text>
    <text x="80" y="252" font-family="Inter, sans-serif" font-size="11" fill="#888">Dad — Admin</text>
    <rect x="280" y="228" width="52" height="22" rx="11" fill="#E8F4F8"/>
    <text x="306" y="243" text-anchor="middle" font-family="Inter, sans-serif" font-size="10" font-weight="500" fill="#2E86AB">You</text>
  </g>

  <g filter="url(#cardShadow)">
    <rect x="24" y="278" width="327" height="60" rx="12" fill="white"/>
    <circle cx="55" cy="308" r="16" fill="#F18F01"/>
    <text x="55" y="313" text-anchor="middle" font-family="Inter, sans-serif" font-size="11" font-weight="700" fill="white">S</text>
    <text x="80" y="302" font-family="Inter, sans-serif" font-size="14" font-weight="600" fill="#1B2A4A">Sarah</text>
    <text x="80" y="320" font-family="Inter, sans-serif" font-size="11" fill="#888">Mom — Admin</text>
    <text x="335" y="310" text-anchor="end" font-family="Inter, sans-serif" font-size="16" fill="#B0B8C0">›</text>
  </g>

  <!-- Kids Section -->
  <text x="28" y="370" font-family="Inter, sans-serif" font-size="11" font-weight="500" fill="#888" letter-spacing="1">KIDS</text>

  <!-- Kid 1: Maggie -->
  <g filter="url(#cardShadow)">
    <rect x="24" y="380" width="327" height="70" rx="12" fill="white"/>
    <circle cx="55" cy="410" r="16" fill="#A855F7"/>
    <text x="55" y="415" text-anchor="middle" font-family="Inter, sans-serif" font-size="11" font-weight="700" fill="white">M</text>
    <text x="80" y="402" font-family="Inter, sans-serif" font-size="14" font-weight="600" fill="#1B2A4A">Maggie</text>
    <text x="80" y="418" font-family="Inter, sans-serif" font-size="11" fill="#888">Age 12 — Code: MAG01</text>
    <text x="80" y="440" font-family="Inter, sans-serif" font-size="10" fill="#F18F01" font-weight="500">285 pts — 3/5 chores</text>
    <text x="335" y="415" text-anchor="end" font-family="Inter, sans-serif" font-size="16" fill="#B0B8C0">›</text>
  </g>

  <!-- Kid 2: Jake -->
  <g filter="url(#cardShadow)">
    <rect x="24" y="458" width="327" height="70" rx="12" fill="white"/>
    <circle cx="55" cy="488" r="16" fill="#FF6B6B"/>
    <text x="55" y="493" text-anchor="middle" font-family="Inter, sans-serif" font-size="11" font-weight="700" fill="white">J</text>
    <text x="80" y="480" font-family="Inter, sans-serif" font-size="14" font-weight="600" fill="#1B2A4A">Jake</text>
    <text x="80" y="496" font-family="Inter, sans-serif" font-size="11" fill="#888">Age 9 — Code: JAK01</text>
    <text x="80" y="518" font-family="Inter, sans-serif" font-size="10" fill="#F18F01" font-weight="500">120 pts — 1/4 chores</text>
    <text x="335" y="493" text-anchor="end" font-family="Inter, sans-serif" font-size="16" fill="#B0B8C0">›</text>
  </g>

  <!-- Kid 3: Lily -->
  <g filter="url(#cardShadow)">
    <rect x="24" y="536" width="327" height="70" rx="12" fill="white"/>
    <circle cx="55" cy="566" r="16" fill="#2E86AB"/>
    <text x="55" y="571" text-anchor="middle" font-family="Inter, sans-serif" font-size="11" font-weight="700" fill="white">L</text>
    <text x="80" y="558" font-family="Inter, sans-serif" font-size="14" font-weight="600" fill="#1B2A4A">Lily</text>
    <text x="80" y="574" font-family="Inter, sans-serif" font-size="11" fill="#888">Age 7 — Code: LIL01</text>
    <text x="80" y="596" font-family="Inter, sans-serif" font-size="10" fill="#F18F01" font-weight="500">95 pts — 2/3 chores</text>
    <text x="335" y="571" text-anchor="end" font-family="Inter, sans-serif" font-size="16" fill="#B0B8C0">›</text>
  </g>

  <!-- Invite Family Member -->
  <rect x="24" y="625" width="327" height="48" rx="14" fill="white" stroke="#2E86AB" stroke-width="1.5" stroke-dasharray="6 3"/>
  <text x="187" y="655" text-anchor="middle" font-family="Inter, sans-serif" font-size="14" font-weight="600" fill="#2E86AB">+ Invite Family Member</text>

  <!-- Give Badge / Shout-out -->
  <g transform="translate(24, 690)">
    <rect x="0" y="0" width="155" height="40" rx="12" fill="#FFF5E0"/>
    <text x="77" y="26" text-anchor="middle" font-family="Inter, sans-serif" font-size="12" font-weight="600" fill="#F18F01">🏅 Give Badge</text>
    <rect x="172" y="0" width="155" height="40" rx="12" fill="#E8F4F8"/>
    <text x="249" y="26" text-anchor="middle" font-family="Inter, sans-serif" font-size="12" font-weight="600" fill="#2E86AB">🌟 Shout-out</text>
  </g>

  <!-- Bottom Navigation -->
  <rect x="0" y="740" width="375" height="72" fill="white" stroke="#E8ECF0" stroke-width="1"/>
  <!-- Dashboard -->
  <g text-anchor="middle">
    <g transform="translate(38, 762)">
      <rect x="-7" y="-7" width="6" height="6" rx="1.5" fill="#B0B8C0"/>
      <rect x="1" y="-7" width="6" height="6" rx="1.5" fill="#B0B8C0"/>
      <rect x="-7" y="1" width="6" height="6" rx="1.5" fill="#B0B8C0"/>
      <rect x="1" y="1" width="6" height="6" rx="1.5" fill="#B0B8C0"/>
    </g>
    <text x="38" y="783" font-family="Inter, sans-serif" font-size="10" fill="#B0B8C0">Dashboard</text>
  </g>
  <!-- Verify -->
  <g text-anchor="middle">
    <g transform="translate(112, 762)">
      <path d="M-6,-1 L-2,5 L7,-6" fill="none" stroke="#B0B8C0" stroke-width="2.5" stroke-linecap="round" stroke-linejoin="round"/>
    </g>
    <text x="112" y="783" font-family="Inter, sans-serif" font-size="10" fill="#B0B8C0">Verify</text>
  </g>
  <!-- Rewards -->
  <g text-anchor="middle">
    <g transform="translate(187, 762)">
      <path d="M0,-8 L2,-3 L7.6,-2.5 L3.3,1 L4.7,6.5 L0,3.5 L-4.7,6.5 L-3.3,1 L-7.6,-2.5 L-2,-3 Z" fill="#B0B8C0"/>
    </g>
    <text x="187" y="783" font-family="Inter, sans-serif" font-size="10" fill="#B0B8C0">Rewards</text>
  </g>
  <!-- Room -->
  <g text-anchor="middle">
    <g transform="translate(262, 762)">
      <path d="M-6,-7 L6,-7 C8,-7 9,-5.5 9,-4 L9,1.5 C9,3.5 8,5 6,5 L1,5 L-3,9 L-1,5 L-6,5 C-8,5 -9,3.5 -9,1.5 L-9,-4 C-9,-5.5 -8,-7 -6,-7 Z" fill="#B0B8C0"/>
    </g>
    <text x="262" y="783" font-family="Inter, sans-serif" font-size="10" fill="#B0B8C0">Room</text>
  </g>
  <!-- Family (active) -->
  <g text-anchor="middle">
    <rect x="317" y="740" width="40" height="3" rx="1.5" fill="#2E86AB"/>
    <g transform="translate(337, 762)">
      <circle cx="-3" cy="-5" r="3.5" fill="#2E86AB"/>
      <path d="M-9,7 C-9,1 3,1 3,7" fill="#2E86AB"/>
      <circle cx="5" cy="-6" r="2.5" fill="#2E86AB" opacity="0.7"/>
      <path d="M1,6 C1,1 9,1 9,6" fill="#2E86AB" opacity="0.7"/>
    </g>
    <text x="337" y="783" font-family="Inter, sans-serif" font-size="10" font-weight="600" fill="#2E86AB">Family</text>
  </g>

  <!-- Home indicator -->
  <rect x="120" y="800" width="135" height="5" rx="2.5" fill="#1B2A4A" opacity="0.15"/>
</svg>