<svg xmlns="http://www.w3.org/2000/svg" viewBox="0 0 375 812" width="375" height="812">
  <!-- Screen: Parent Settings — Settings hub -->
  <defs>
    <filter id="cardShadow">
      <feDropShadow dx="0" dy="2" stdDeviation="6" flood-color="#1B2A4A" flood-opacity="0.1"/>
    </filter>
  </defs>

  <rect width="375" height="812" fill="#F5F7FA"/>

  <!-- Status bar -->
  <text x="30" y="52" font-family="Inter, sans-serif" font-size="14" font-weight="600" fill="#1B2A4A">9:41</text>
  <g transform="translate(295, 40)">
    <rect x="0" y="0" width="22" height="11" rx="2" fill="none" stroke="#1B2A4A" stroke-width="1.2"/>
    <rect x="2" y="2" width="15" height="7" rx="1" fill="#1B2A4A"/>
    <rect x="22" y="3" width="2" height="5" rx="1" fill="#1B2A4A" opacity="0.4"/>
  </g>

  <!-- Header -->
  <rect x="0" y="0" width="375" height="140" fill="#1B2A4A"/>
  <g transform="translate(28, 88)">
    <path d="M10 0 L0 0 M3 -5 L0 0 L3 5" fill="none" stroke="white" stroke-width="2" stroke-linecap="round" stroke-linejoin="round"/>
  </g>
  <text x="28" y="125" font-family="Inter, sans-serif" font-size="24" font-weight="700" fill="white">Settings</text>

  <!-- Family Code -->
  <rect x="24" y="155" width="327" height="48" rx="12" fill="white" stroke="#E8ECF0" stroke-width="1"/>
  <text x="44" y="175" font-family="Inter, sans-serif" font-size="11" fill="#888">FAMILY CODE</text>
  <text x="44" y="193" font-family="Inter, sans-serif" font-size="16" font-weight="700" fill="#1B2A4A" letter-spacing="2">JOHN13</text>
  <text x="335" y="183" text-anchor="end" font-family="Inter, sans-serif" font-size="11" font-weight="500" fill="#2E86AB">Copy</text>

  <!-- Points Economy -->
  <text x="28" y="230" font-family="Inter, sans-serif" font-size="11" font-weight="500" fill="#888" letter-spacing="1">POINTS ECONOMY</text>
  <rect x="24" y="238" width="327" height="48" rx="12" fill="white" stroke="#E8ECF0" stroke-width="1"/>
  <text x="44" y="268" font-family="Inter, sans-serif" font-size="13" fill="#1B2A4A">Points per dollar</text>
  <text x="295" y="268" text-anchor="end" font-family="Inter, sans-serif" font-size="14" font-weight="700" fill="#F18F01">20 pts = $1</text>
  <text x="335" y="268" text-anchor="end" font-family="Inter, sans-serif" font-size="16" fill="#B0B8C0">›</text>

  <!-- Kids & PIN Management -->
  <text x="28" y="315" font-family="Inter, sans-serif" font-size="11" font-weight="500" fill="#888" letter-spacing="1">KIDS</text>
  <rect x="24" y="323" width="327" height="42" rx="12" fill="white" stroke="#E8ECF0" stroke-width="1"/>
  <text x="44" y="350" font-family="Inter, sans-serif" font-size="13" fill="#1B2A4A">Maggie — PIN active</text>
  <text x="335" y="350" text-anchor="end" font-family="Inter, sans-serif" font-size="11" fill="#2E86AB">Reset PIN</text>

  <rect x="24" y="367" width="327" height="42" rx="12" fill="white" stroke="#E8ECF0" stroke-width="1"/>
  <text x="44" y="394" font-family="Inter, sans-serif" font-size="13" fill="#1B2A4A">Jake — PIN active</text>
  <text x="335" y="394" text-anchor="end" font-family="Inter, sans-serif" font-size="11" fill="#2E86AB">Reset PIN</text>

  <rect x="24" y="411" width="327" height="42" rx="12" fill="white" stroke="#E8ECF0" stroke-width="1"/>
  <text x="44" y="438" font-family="Inter, sans-serif" font-size="13" fill="#1B2A4A">Lily — PIN active</text>
  <text x="335" y="438" text-anchor="end" font-family="Inter, sans-serif" font-size="11" fill="#2E86AB">Reset PIN</text>

  <!-- Pet / Companion -->
  <text x="28" y="480" font-family="Inter, sans-serif" font-size="11" font-weight="500" fill="#888" letter-spacing="1">COMPANION</text>
  <rect x="24" y="488" width="327" height="42" rx="12" fill="white" stroke="#E8ECF0" stroke-width="1"/>
  <text x="44" y="515" font-family="Inter, sans-serif" font-size="13" fill="#1B2A4A">🐙 Chal — Configure messages</text>
  <text x="335" y="515" text-anchor="end" font-family="Inter, sans-serif" font-size="16" fill="#B0B8C0">›</text>

  <!-- Appearance -->
  <text x="28" y="558" font-family="Inter, sans-serif" font-size="11" font-weight="500" fill="#888" letter-spacing="1">APPEARANCE</text>
  <rect x="24" y="566" width="327" height="42" rx="12" fill="white" stroke="#E8ECF0" stroke-width="1"/>
  <text x="44" y="593" font-family="Inter, sans-serif" font-size="13" fill="#1B2A4A">Dark Mode</text>
  <rect x="300" y="579" width="36" height="20" rx="10" fill="#E8ECF0"/>
  <circle cx="312" cy="589" r="8" fill="white"/>

  <!-- Theme swatches -->
  <rect x="24" y="612" width="327" height="42" rx="12" fill="white" stroke="#E8ECF0" stroke-width="1"/>
  <text x="44" y="639" font-family="Inter, sans-serif" font-size="13" fill="#1B2A4A">Theme</text>
  <g transform="translate(200, 625)">
    <circle cx="0" cy="0" r="9" fill="#2E86AB" stroke="#1B2A4A" stroke-width="2"/>
    <circle cx="26" cy="0" r="9" fill="#F18F01"/>
    <circle cx="52" cy="0" r="9" fill="#A855F7"/>
    <circle cx="78" cy="0" r="9" fill="#28a745"/>
    <circle cx="104" cy="0" r="9" fill="#FF6B6B"/>
    <circle cx="130" cy="0" r="9" fill="#1B2A4A"/>
  </g>

  <!-- Notifications -->
  <text x="28" y="685" font-family="Inter, sans-serif" font-size="11" font-weight="500" fill="#888" letter-spacing="1">NOTIFICATIONS</text>
  <rect x="24" y="693" width="327" height="34" rx="10" fill="white" stroke="#E8ECF0" stroke-width="1"/>
  <text x="44" y="716" font-family="Inter, sans-serif" font-size="12" fill="#1B2A4A">Chore submissions</text>
  <rect x="300" y="703" width="36" height="20" rx="10" fill="#2E86AB"/>
  <circle cx="326" cy="713" r="8" fill="white"/>

  <rect x="24" y="729" width="327" height="34" rx="10" fill="white" stroke="#E8ECF0" stroke-width="1"/>
  <text x="44" y="752" font-family="Inter, sans-serif" font-size="12" fill="#1B2A4A">Swap requests</text>
  <rect x="300" y="739" width="36" height="20" rx="10" fill="#2E86AB"/>
  <circle cx="326" cy="749" r="8" fill="white"/>

  <!-- Home indicator -->
  <rect x="120" y="800" width="135" height="5" rx="2.5" fill="#1B2A4A" opacity="0.15"/>
</svg>