<svg xmlns="http://www.w3.org/2000/svg" viewBox="0 0 400 400" width="400" height="400">
  <!-- Chal: Penguin — Cool, teamwork, family-oriented -->
  <defs>
    <linearGradient id="penBody" x1="0%" y1="0%" x2="100%" y2="100%">
      <stop offset="0%" stop-color="#2D3436"/>
      <stop offset="100%" stop-color="#1B2328"/>
    </linearGradient>
    <radialGradient id="penCheek" cx="50%" cy="50%" r="50%">
      <stop offset="0%" stop-color="#FF9FF3" stop-opacity="0.45"/>
      <stop offset="100%" stop-color="#FF9FF3" stop-opacity="0"/>
    </radialGradient>
    <filter id="penShadow">
      <feDropShadow dx="0" dy="5" stdDeviation="6" flood-color="#0D1215" flood-opacity="0.15"/>
    </filter>
  </defs>

  <style>
    /* Waddle — entire character tilts side-to-side */
    @keyframes pen-waddle {
      0%, 100% { transform: rotate(0deg); }
      25% { transform: rotate(-5deg); }
      75% { transform: rotate(5deg); }
    }
    .pen-waddle {
      animation: pen-waddle 1.2s ease-in-out infinite;
      transform-origin: 200px 380px;
    }

    /* Flipper wave — left flipper */
    @keyframes pen-flipper-left {
      0%, 100% { transform: rotate(0deg); }
      50% { transform: rotate(-10deg); }
    }
    .pen-flipper-left {
      animation: pen-flipper-left 1.5s ease-in-out infinite;
      transform-origin: 130px 230px;
    }

    /* Flipper wave — right flipper */
    @keyframes pen-flipper-right {
      0%, 100% { transform: rotate(0deg); }
      50% { transform: rotate(10deg); }
    }
    .pen-flipper-right {
      animation: pen-flipper-right 1.5s ease-in-out infinite 0.75s;
      transform-origin: 270px 230px;
    }

    /* Pom-pom bounce */
    @keyframes pen-pompom {
      0%, 100% { transform: translateY(0); }
      50% { transform: translateY(-6px); }
    }
    .pen-pompom {
      animation: pen-pompom 0.8s ease-in-out infinite;
      transform-box: fill-box;
      transform-origin: center;
    }

    /* Beak chirp — slight Y scale */
    @keyframes pen-beak {
      0%, 100% { transform: scaleY(1); }
      50% { transform: scaleY(1.08); }
    }
    .pen-beak {
      animation: pen-beak 1.5s ease-in-out infinite;
      transform-box: fill-box;
      transform-origin: center top;
    }

    /* Foot tap — right foot shifts */
    @keyframes pen-foot-tap {
      0%, 100% { transform: translateX(0); }
      50% { transform: translateX(3px); }
    }
    .pen-foot-tap {
      animation: pen-foot-tap 1s ease-in-out infinite;
    }
  </style>

  <g class="pen-waddle">
    <ellipse cx="200" cy="380" rx="70" ry="8" fill="#0D1215" opacity="0.1"/>
    <!-- Body -->
    <ellipse cx="200" cy="280" rx="82" ry="95" fill="url(#penBody)" filter="url(#penShadow)"/>
    <ellipse cx="200" cy="295" rx="55" ry="72" fill="white"/>
    <ellipse cx="200" cy="300" rx="50" ry="65" fill="#F8F8F8"/>
    <!-- Flippers -->
    <g class="pen-flipper-left">
      <path d="M118 230 Q95 280 105 335 Q110 340 115 332 Q120 295 130 250" fill="url(#penBody)"/>
    </g>
    <g class="pen-flipper-right">
      <path d="M282 230 Q305 280 295 335 Q290 340 285 332 Q280 295 270 250" fill="url(#penBody)"/>
    </g>
    <!-- Feet -->
    <ellipse cx="165" cy="372" rx="28" ry="10" fill="#FDCB6E"/>
    <g class="pen-foot-tap">
      <ellipse cx="235" cy="372" rx="28" ry="10" fill="#FDCB6E"/>
    </g>
    <g stroke="#E8A930" stroke-width="1.5" fill="none">
      <path d="M155 372 L148 378"/>
      <path d="M165 372 L165 380"/>
      <path d="M175 372 L182 378"/>
    </g>
    <g class="pen-foot-tap" stroke="#E8A930" stroke-width="1.5" fill="none">
      <path d="M225 372 L218 378"/>
      <path d="M235 372 L235 380"/>
      <path d="M245 372 L252 378"/>
    </g>
    <!-- Head -->
    <ellipse cx="200" cy="170" rx="78" ry="75" fill="url(#penBody)" filter="url(#penShadow)"/>
    <ellipse cx="200" cy="185" rx="52" ry="48" fill="white"/>
    <ellipse cx="185" cy="130" rx="35" ry="22" fill="#4A5459" opacity="0.15"/>
    <!-- Eyes -->
    <ellipse cx="178" cy="175" rx="18" ry="20" fill="white"/>
    <ellipse cx="222" cy="175" rx="18" ry="20" fill="white"/>
    <ellipse cx="181" cy="178" rx="11" ry="13" fill="#1B2A4A"/>
    <ellipse cx="219" cy="178" rx="11" ry="13" fill="#1B2A4A"/>
    <circle cx="185" cy="172" r="5" fill="white" opacity="0.9"/>
    <circle cx="223" cy="172" r="5" fill="white" opacity="0.9"/>
    <circle cx="178" cy="182" r="2.5" fill="white" opacity="0.4"/>
    <circle cx="216" cy="182" r="2.5" fill="white" opacity="0.4"/>
    <!-- Beak -->
    <g class="pen-beak">
      <path d="M188 200 Q200 195 212 200 Q210 215 200 220 Q190 215 188 200 Z" fill="#FDCB6E"/>
      <path d="M192 203 Q200 200 208 203 Q207 210 200 213 Q193 210 192 203 Z" fill="#E8A930" opacity="0.5"/>
    </g>
    <!-- Cheek blush -->
    <ellipse cx="155" cy="198" rx="14" ry="10" fill="url(#penCheek)"/>
    <ellipse cx="245" cy="198" rx="14" ry="10" fill="url(#penCheek)"/>
    <!-- Winter hat -->
    <g transform="translate(200, 100)">
      <path d="M-48,15 Q-55,0 -45,-20 Q-30,-40 0,-48 Q30,-40 45,-20 Q55,0 48,15 Z" fill="#2E86AB"/>
      <path d="M-50,12 Q0,22 50,12 Q0,6 -50,12 Z" fill="#1B2A4A"/>
      <path d="M-42,-10 Q0,-20 42,-10" fill="none" stroke="white" stroke-width="3" opacity="0.3"/>
      <path d="M-35,-25 Q0,-35 35,-25" fill="none" stroke="white" stroke-width="3" opacity="0.3"/>
      <g class="pen-pompom">
        <circle cx="0" cy="-50" r="14" fill="white"/>
        <circle cx="0" cy="-50" r="10" fill="#F0F0F0"/>
      </g>
      <path d="M-8,0 L-3,5 L8,-5" fill="none" stroke="#F18F01" stroke-width="2.5" stroke-linecap="round" stroke-linejoin="round"/>
    </g>
  </g>
</svg>