<svg xmlns="http://www.w3.org/2000/svg" viewBox="0 0 400 400" width="400" height="400">
  <!-- Chal: Turtle — Patient, steady, reliable streak-keeper -->
  <defs>
    <linearGradient id="turtleShell" x1="0%" y1="0%" x2="100%" y2="100%">
      <stop offset="0%" stop-color="#00B894"/>
      <stop offset="100%" stop-color="#00896A"/>
    </linearGradient>
    <linearGradient id="turtleSkin" x1="0%" y1="0%" x2="100%" y2="100%">
      <stop offset="0%" stop-color="#81ECAC"/>
      <stop offset="100%" stop-color="#55D98B"/>
    </linearGradient>
    <linearGradient id="shellDark" x1="0%" y1="0%" x2="100%" y2="100%">
      <stop offset="0%" stop-color="#009E7E"/>
      <stop offset="100%" stop-color="#007A5E"/>
    </linearGradient>
    <radialGradient id="turtleCheek" cx="50%" cy="50%" r="50%">
      <stop offset="0%" stop-color="#FF9FF3" stop-opacity="0.35"/>
      <stop offset="100%" stop-color="#FF9FF3" stop-opacity="0"/>
    </radialGradient>
    <filter id="turtleShadow">
      <feDropShadow dx="0" dy="5" stdDeviation="6" flood-color="#005A42" flood-opacity="0.15"/>
    </filter>
  </defs>

  <style>
    /* Gentle sway — whole character tilts very slightly, turtle-like */
    @keyframes turtle-sway {
      0%, 100% { transform: rotate(-1deg); }
      50% { transform: rotate(1deg); }
    }
    .turtle-sway {
      animation: turtle-sway 6s ease-in-out infinite;
      transform-origin: 200px 380px;
    }

    /* Slow head bob — head and neck gently move up and down */
    @keyframes turtle-bob {
      0%, 100% { transform: translateY(0); }
      50% { transform: translateY(-5px); }
    }
    .turtle-bob {
      animation: turtle-bob 4s ease-in-out infinite;
    }

    /* Shell shimmer — shell pattern opacity pulses */
    @keyframes turtle-shimmer {
      0%, 100% { opacity: 0.4; }
      50% { opacity: 0.6; }
    }
    .turtle-shimmer {
      animation: turtle-shimmer 5s ease-in-out infinite;
    }

    /* Leg paddle — front legs rotate in alternation */
    @keyframes turtle-paddle-left {
      0%, 100% { transform: rotate(5deg); }
      50% { transform: rotate(-5deg); }
    }
    @keyframes turtle-paddle-right {
      0%, 100% { transform: rotate(-5deg); }
      50% { transform: rotate(5deg); }
    }
    .turtle-paddle-left {
      animation: turtle-paddle-left 3s ease-in-out infinite;
      transform-origin: 120px 340px;
    }
    .turtle-paddle-right {
      animation: turtle-paddle-right 3s ease-in-out infinite;
      transform-origin: 280px 340px;
    }

    /* Hat tip — top hat tilts slightly */
    @keyframes turtle-hat-tip {
      0%, 100% { transform: translate(200px, 118px) rotate(-3deg); }
      50% { transform: translate(200px, 118px) rotate(3deg); }
    }
    .turtle-hat-tip {
      animation: turtle-hat-tip 4s ease-in-out infinite;
      transform-origin: 0px 8px;
    }

    /* Blink — eyes blink slowly */
    @keyframes turtle-blink {
      0%, 85%, 100% { transform: scaleY(1); }
      90%, 95% { transform: scaleY(0); }
    }
    .turtle-blink {
      animation: turtle-blink 6s ease-in-out infinite;
      transform-box: fill-box;
      transform-origin: center;
    }
  </style>

  <g class="turtle-sway">
    <ellipse cx="200" cy="380" rx="100" ry="10" fill="#005A42" opacity="0.1"/>
    <!-- Shell -->
    <ellipse cx="200" cy="280" rx="110" ry="85" fill="url(#turtleShell)" filter="url(#turtleShadow)"/>
    <!-- Shell pattern -->
    <g class="turtle-shimmer" fill="none" stroke="url(#shellDark)" stroke-width="2.5">
      <path d="M170 250 L200 235 L230 250 L230 280 L200 295 L170 280 Z"/>
      <path d="M170 250 L200 235 L200 210 L175 220 L155 240 Z"/>
      <path d="M230 250 L200 235 L200 210 L225 220 L245 240 Z"/>
      <path d="M170 280 L155 240 L125 265 L135 295 Z"/>
      <path d="M230 280 L245 240 L275 265 L265 295 Z"/>
      <path d="M170 280 L200 295 L200 320 L165 310 L135 295 Z"/>
      <path d="M230 280 L200 295 L200 320 L235 310 L265 295 Z"/>
    </g>
    <ellipse cx="185" cy="245" rx="40" ry="25" fill="white" opacity="0.06"/>
    <ellipse cx="200" cy="340" rx="105" ry="20" fill="url(#shellDark)" opacity="0.3"/>
    <!-- Legs -->
    <g class="turtle-paddle-left">
      <ellipse cx="120" cy="340" rx="22" ry="18" fill="url(#turtleSkin)" transform="rotate(-20, 120, 340)"/>
    </g>
    <g class="turtle-paddle-right">
      <ellipse cx="280" cy="340" rx="22" ry="18" fill="url(#turtleSkin)" transform="rotate(20, 280, 340)"/>
    </g>
    <ellipse cx="135" cy="365" rx="20" ry="14" fill="url(#turtleSkin)" transform="rotate(-10, 135, 365)"/>
    <ellipse cx="265" cy="365" rx="20" ry="14" fill="url(#turtleSkin)" transform="rotate(10, 265, 365)"/>
    <!-- Tail -->
    <path d="M200 360 Q200 375 195 378 Q192 380 195 375 Q198 368 200 360" fill="url(#turtleSkin)"/>

    <!-- Head and neck group — bobs up and down -->
    <g class="turtle-bob">
      <!-- Neck -->
      <ellipse cx="200" cy="225" rx="30" ry="40" fill="url(#turtleSkin)"/>
      <!-- Head -->
      <ellipse cx="200" cy="175" rx="60" ry="55" fill="url(#turtleSkin)" filter="url(#turtleShadow)"/>
      <ellipse cx="190" cy="150" rx="28" ry="20" fill="white" opacity="0.08"/>
      <!-- Eyes -->
      <g class="turtle-blink">
        <ellipse cx="178" cy="170" rx="18" ry="20" fill="white"/>
        <ellipse cx="222" cy="170" rx="18" ry="20" fill="white"/>
        <ellipse cx="181" cy="173" rx="11" ry="13" fill="#1B2A4A"/>
        <ellipse cx="219" cy="173" rx="11" ry="13" fill="#1B2A4A"/>
        <circle cx="185" cy="167" r="5" fill="white" opacity="0.9"/>
        <circle cx="223" cy="167" r="5" fill="white" opacity="0.9"/>
        <circle cx="178" cy="177" r="2.5" fill="white" opacity="0.4"/>
        <circle cx="216" cy="177" r="2.5" fill="white" opacity="0.4"/>
      </g>
      <!-- Smile -->
      <path d="M185 200 Q200 215 215 200" fill="none" stroke="#3D8B6E" stroke-width="2.5" stroke-linecap="round"/>
      <!-- Nostrils -->
      <circle cx="195" cy="192" r="2.5" fill="#3D8B6E" opacity="0.5"/>
      <circle cx="205" cy="192" r="2.5" fill="#3D8B6E" opacity="0.5"/>
      <!-- Cheek blush -->
      <ellipse cx="155" cy="190" rx="14" ry="9" fill="url(#turtleCheek)"/>
      <ellipse cx="245" cy="190" rx="14" ry="9" fill="url(#turtleCheek)"/>
      <!-- Top hat -->
      <g class="turtle-hat-tip">
        <ellipse cx="0" cy="8" rx="22" ry="5" fill="#1B2A4A"/>
        <rect x="-14" y="-15" width="28" height="23" rx="3" fill="#1B2A4A"/>
        <ellipse cx="0" cy="-15" rx="14" ry="4" fill="#2E3D52"/>
        <rect x="-14" y="0" width="28" height="5" fill="#F18F01"/>
      </g>
    </g>
  </g>
</svg>