<svg xmlns="http://www.w3.org/2000/svg" viewBox="0 0 400 400" width="400" height="400">
  <!-- Chal: Panda — Chill, balanced, zen-like patience -->
  <defs>
    <radialGradient id="pandaCheek" cx="50%" cy="50%" r="50%">
      <stop offset="0%" stop-color="#FF9FF3" stop-opacity="0.45"/>
      <stop offset="100%" stop-color="#FF9FF3" stop-opacity="0"/>
    </radialGradient>
    <filter id="pandaShadow">
      <feDropShadow dx="0" dy="5" stdDeviation="6" flood-color="#2D3436" flood-opacity="0.12"/>
    </filter>
  </defs>

  <style>
    /* Gentle sway — entire character sways side-to-side, zen-like */
    @keyframes panda-sway {
      0%, 100% { transform: rotate(-2deg); }
      50% { transform: rotate(2deg); }
    }
    .panda-sway {
      animation: panda-sway 5s ease-in-out infinite;
      transform-origin: 200px 378px;
    }

    /* Arm wave — right arm raises slightly and lowers */
    @keyframes panda-arm-wave {
      0%, 100% { transform: rotate(-20deg); }
      50% { transform: rotate(-25deg); }
    }
    .panda-arm-wave {
      animation: panda-arm-wave 3s ease-in-out infinite;
      transform-origin: 272px 260px;
    }

    /* Bamboo munch — bamboo bobs toward mouth */
    @keyframes panda-bamboo-munch {
      0%, 100% { transform: translate(295px, 260px) translateX(0) translateY(0); }
      50% { transform: translate(295px, 260px) translateX(-3px) translateY(-3px); }
    }
    .panda-bamboo-munch {
      animation: panda-bamboo-munch 2s ease-in-out infinite;
    }

    /* Eye blink — slow, peaceful blink */
    @keyframes panda-blink {
      0%, 82%, 100% { transform: scaleY(1); }
      88%, 94% { transform: scaleY(0); }
    }
    .panda-blink {
      animation: panda-blink 5s ease-in-out infinite;
      transform-box: fill-box;
      transform-origin: center;
    }

    /* Ear wiggle — tiny bounce */
    @keyframes panda-ear-wiggle {
      0%, 92%, 100% { transform: translateY(0); }
      94%, 98% { transform: translateY(-2px); }
    }
    .panda-ear-wiggle {
      animation: panda-ear-wiggle 4s ease-in-out infinite;
    }

    /* Star sparkle — star on bamboo pulses */
    @keyframes panda-star-sparkle {
      0%, 100% { transform: translate(0px, -52px) scale(1); }
      50% { transform: translate(0px, -52px) scale(1.2); }
    }
    .panda-star-sparkle {
      animation: panda-star-sparkle 2s ease-in-out infinite;
      transform-origin: 0px 0px;
    }
  </style>

  <g class="panda-sway">
    <ellipse cx="200" cy="378" rx="80" ry="9" fill="#2D3436" opacity="0.08"/>
    <!-- Body -->
    <ellipse cx="200" cy="305" rx="82" ry="68" fill="white" filter="url(#pandaShadow)" stroke="#E8E8E8" stroke-width="0.8"/>
    <ellipse cx="200" cy="315" rx="48" ry="40" fill="#F8F8F8"/>
    <!-- Arms -->
    <ellipse cx="128" cy="290" rx="28" ry="40" fill="#2D3436" transform="rotate(20, 128, 290)"/>
    <g class="panda-arm-wave">
      <ellipse cx="272" cy="290" rx="28" ry="40" fill="#2D3436"/>
    </g>
    <!-- Legs -->
    <ellipse cx="160" cy="365" rx="24" ry="16" fill="#2D3436"/>
    <ellipse cx="240" cy="365" rx="24" ry="16" fill="#2D3436"/>
    <ellipse cx="160" cy="368" rx="14" ry="8" fill="#4A5459"/>
    <ellipse cx="240" cy="368" rx="14" ry="8" fill="#4A5459"/>
    <!-- Head -->
    <ellipse cx="200" cy="180" rx="92" ry="88" fill="white" filter="url(#pandaShadow)" stroke="#E8E8E8" stroke-width="0.8"/>
    <ellipse cx="185" cy="135" rx="45" ry="30" fill="white" opacity="0.3"/>
    <!-- Ears -->
    <g class="panda-ear-wiggle">
      <circle cx="125" cy="115" r="32" fill="#2D3436"/>
      <circle cx="275" cy="115" r="32" fill="#2D3436"/>
      <circle cx="127" cy="117" r="18" fill="#4A5459" opacity="0.4"/>
      <circle cx="273" cy="117" r="18" fill="#4A5459" opacity="0.4"/>
    </g>
    <!-- Eye patches -->
    <ellipse cx="168" cy="180" rx="32" ry="30" fill="#2D3436" transform="rotate(-10, 168, 180)"/>
    <ellipse cx="232" cy="180" rx="32" ry="30" fill="#2D3436" transform="rotate(10, 232, 180)"/>
    <!-- Eyes -->
    <g class="panda-blink">
      <ellipse cx="170" cy="180" rx="18" ry="20" fill="white"/>
      <ellipse cx="230" cy="180" rx="18" ry="20" fill="white"/>
      <ellipse cx="173" cy="183" rx="11" ry="13" fill="#1B2A4A"/>
      <ellipse cx="227" cy="183" rx="11" ry="13" fill="#1B2A4A"/>
      <circle cx="177" cy="177" r="5" fill="white" opacity="0.9"/>
      <circle cx="231" cy="177" r="5" fill="white" opacity="0.9"/>
      <circle cx="170" cy="187" r="2.5" fill="white" opacity="0.4"/>
      <circle cx="224" cy="187" r="2.5" fill="white" opacity="0.4"/>
    </g>
    <!-- Nose -->
    <ellipse cx="200" cy="210" rx="10" ry="7" fill="#2D3436"/>
    <ellipse cx="200" cy="208" rx="4" ry="3" fill="#4A5459" opacity="0.3"/>
    <!-- Mouth -->
    <path d="M200 217 L194 224" fill="none" stroke="#636E72" stroke-width="2.5" stroke-linecap="round"/>
    <path d="M200 217 L206 224" fill="none" stroke="#636E72" stroke-width="2.5" stroke-linecap="round"/>
    <path d="M188 227 Q200 236 212 227" fill="none" stroke="#636E72" stroke-width="2.5" stroke-linecap="round"/>
    <!-- Cheek blush -->
    <ellipse cx="142" cy="210" rx="16" ry="10" fill="url(#pandaCheek)"/>
    <ellipse cx="258" cy="210" rx="16" ry="10" fill="url(#pandaCheek)"/>
    <!-- Bamboo -->
    <g class="panda-bamboo-munch">
      <rect x="-4" y="-50" width="8" height="65" rx="4" fill="#55D98B"/>
      <rect x="-4" y="-30" width="8" height="3" fill="#3D8B6E" opacity="0.3"/>
      <rect x="-4" y="-10" width="8" height="3" fill="#3D8B6E" opacity="0.3"/>
      <path d="M4,-45 Q20,-55 15,-40 Q10,-35 4,-38" fill="#55D98B"/>
      <path d="M4,-30 Q22,-25 12,-18 Q6,-20 4,-25" fill="#55D98B"/>
      <!-- Star -->
      <g class="panda-star-sparkle">
        <circle cx="0" cy="0" r="8" fill="#F18F01"/>
        <path d="M0,-5 L1.8,-2 L5,-2 L2.5,0 L3.5,3 L0,1 L-3.5,3 L-2.5,0 L-5,-2 L-1.8,-2 Z" fill="#FFD700"/>
      </g>
    </g>
  </g>
</svg>