<svg xmlns="http://www.w3.org/2000/svg" viewBox="0 0 430 932" width="430" height="932">
  <!-- App Store Screenshot 5: Parent Dashboard -->
  <defs>
    <linearGradient id="s5Bg" x1="0%" y1="0%" x2="100%" y2="100%">
      <stop offset="0%" stop-color="#1B2A4A"/>
      <stop offset="100%" stop-color="#2E86AB"/>
    </linearGradient>
    <filter id="s5Shadow">
      <feDropShadow dx="0" dy="8" stdDeviation="16" flood-color="#0D1520" flood-opacity="0.35"/>
    </filter>
  </defs>

  <rect width="430" height="932" fill="url(#s5Bg)"/>

  <text x="215" y="100" text-anchor="middle" font-family="Inter, sans-serif" font-size="32" font-weight="700" fill="white">Parents stay</text>
  <text x="215" y="140" text-anchor="middle" font-family="Inter, sans-serif" font-size="32" font-weight="700" fill="white">in control</text>
  <text x="215" y="175" text-anchor="middle" font-family="Inter, sans-serif" font-size="16" font-weight="400" fill="white" opacity="0.5">Manage, approve, and customize</text>

  <g transform="translate(215, 560)" filter="url(#s5Shadow)">
    <rect x="-155" y="-320" width="310" height="640" rx="40" fill="#111" stroke="#333" stroke-width="2"/>
    <rect x="-140" y="-300" width="280" height="600" rx="28" fill="#F5F7FA"/>
    <rect x="-50" y="-310" width="100" height="12" rx="6" fill="#111"/>

    <!-- Header -->
    <rect x="-140" y="-300" width="280" height="60" rx="28 28 0 0" fill="#1B2A4A"/>
    <text x="0" y="-262" text-anchor="middle" font-family="Inter, sans-serif" font-size="16" font-weight="600" fill="white">Family Dashboard</text>

    <!-- Family code card -->
    <rect x="-125" y="-225" width="250" height="50" rx="12" fill="#2E86AB" opacity="0.15"/>
    <text x="-108" y="-200" font-family="Inter, sans-serif" font-size="10" font-weight="500" fill="#2E86AB">FAMILY CODE</text>
    <text x="110" y="-196" text-anchor="end" font-family="Inter, sans-serif" font-size="20" font-weight="700" fill="#2E86AB" letter-spacing="3">JOHN13</text>

    <!-- Kids overview -->
    <text x="-108" y="-158" font-family="Inter, sans-serif" font-size="10" font-weight="500" fill="#888">YOUR KIDS</text>

    <!-- Kid 1 -->
    <rect x="-125" y="-145" width="250" height="60" rx="12" fill="white" stroke="#E8ECF0" stroke-width="1"/>
    <circle cx="-95" cy="-115" r="16" fill="#FF6B6B"/>
    <text x="-95" y="-111" text-anchor="middle" font-family="Inter, sans-serif" font-size="12" font-weight="700" fill="white">J</text>
    <text x="-70" y="-125" font-family="Inter, sans-serif" font-size="13" font-weight="600" fill="#1B2A4A">Johnny</text>
    <text x="-70" y="-110" font-family="Inter, sans-serif" font-size="10" fill="#888">3/5 chores done today</text>
    <!-- Progress bar -->
    <rect x="-70" y="-100" width="120" height="5" rx="2.5" fill="#E8ECF0"/>
    <rect x="-70" y="-100" width="72" height="5" rx="2.5" fill="#28a745"/>
    <text x="110" y="-110" text-anchor="end" font-family="Inter, sans-serif" font-size="11" font-weight="600" fill="#F18F01">285 pts</text>

    <!-- Kid 2 -->
    <rect x="-125" y="-78" width="250" height="60" rx="12" fill="white" stroke="#E8ECF0" stroke-width="1"/>
    <circle cx="-95" cy="-48" r="16" fill="#A855F7"/>
    <text x="-95" y="-44" text-anchor="middle" font-family="Inter, sans-serif" font-size="12" font-weight="700" fill="white">M</text>
    <text x="-70" y="-58" font-family="Inter, sans-serif" font-size="13" font-weight="600" fill="#1B2A4A">Maggie</text>
    <text x="-70" y="-43" font-family="Inter, sans-serif" font-size="10" fill="#888">5/5 chores done today</text>
    <rect x="-70" y="-33" width="120" height="5" rx="2.5" fill="#E8ECF0"/>
    <rect x="-70" y="-33" width="120" height="5" rx="2.5" fill="#28a745"/>
    <text x="110" y="-43" text-anchor="end" font-family="Inter, sans-serif" font-size="11" font-weight="600" fill="#F18F01">420 pts</text>

    <!-- Pending approvals -->
    <text x="-108" y="5" font-family="Inter, sans-serif" font-size="10" font-weight="500" fill="#888">PENDING APPROVALS</text>
    <rect x="-125" y="15" width="250" height="55" rx="12" fill="white" stroke="#F18F01" stroke-width="1.5"/>
    <circle cx="-95" cy="42" r="14" fill="#FFF5E0"/>
    <text x="-95" y="47" text-anchor="middle" font-family="Inter, sans-serif" font-size="12">📸</text>
    <text x="-72" y="35" font-family="Inter, sans-serif" font-size="12" font-weight="600" fill="#1B2A4A">Johnny completed "Clean bedroom"</text>
    <text x="-72" y="50" font-family="Inter, sans-serif" font-size="10" fill="#F18F01">Awaiting your approval</text>

    <!-- Action buttons -->
    <g transform="translate(0, 90)">
      <rect x="-125" y="0" width="120" height="42" rx="10" fill="#28a745"/>
      <text x="-65" y="26" text-anchor="middle" font-family="Inter, sans-serif" font-size="12" font-weight="600" fill="white">✓ Approve</text>
      <rect x="5" y="0" width="120" height="42" rx="10" fill="white" stroke="#dc3545" stroke-width="1.5"/>
      <text x="65" y="26" text-anchor="middle" font-family="Inter, sans-serif" font-size="12" font-weight="600" fill="#dc3545">✗ Redo</text>
    </g>

    <!-- Quick actions -->
    <g transform="translate(0, 155)">
      <rect x="-125" y="0" width="76" height="55" rx="10" fill="white" stroke="#E8ECF0" stroke-width="1"/>
      <text x="-87" y="25" text-anchor="middle" font-family="Inter, sans-serif" font-size="18">➕</text>
      <text x="-87" y="42" text-anchor="middle" font-family="Inter, sans-serif" font-size="9" font-weight="500" fill="#888">Add Chore</text>

      <rect x="-40" y="0" width="76" height="55" rx="10" fill="white" stroke="#E8ECF0" stroke-width="1"/>
      <text x="-2" y="25" text-anchor="middle" font-family="Inter, sans-serif" font-size="18">🎁</text>
      <text x="-2" y="42" text-anchor="middle" font-family="Inter, sans-serif" font-size="9" font-weight="500" fill="#888">Rewards</text>

      <rect x="45" y="0" width="76" height="55" rx="10" fill="white" stroke="#E8ECF0" stroke-width="1"/>
      <text x="83" y="25" text-anchor="middle" font-family="Inter, sans-serif" font-size="18">⚙️</text>
      <text x="83" y="42" text-anchor="middle" font-family="Inter, sans-serif" font-size="9" font-weight="500" fill="#888">Settings</text>
    </g>

    <!-- Bottom nav -->
    <rect x="-140" y="230" width="280" height="70" rx="0 0 28 28" fill="white" stroke="#E8ECF0" stroke-width="1"/>
  </g>
</svg>